# xmcd
#
# Track frame offsets:
#	150
#	15778
#	27891
#	41565
#	65775
#	90303
#	109417
#	124371
#	143338
#	162182
#	176183
#
# Disc length: 2593 seconds
#
# Revision: 2
# Processed by: cddbd v1.5.2PL0 Copyright (c) Steve Scherf et al.
# Submitted via: audiograbber 1.83.01
#
DISCID=8a0a1f0b
DTITLE=Ghost Town Blues Band - Dust the Dust
DYEAR=2010
DGENRE=Blues
TTITLE0=One More Whisky
TTITLE1=Come Together
TTITLE2=Dust the Dust
TTITLE3=C.C. Rider
TTITLE4=Suga' Mama
TTITLE5=Comfortable Way
TTITLE6=Baby Please Don't Go
TTITLE7=I Put a Spell On You
TTITLE8=Give Me a Minute
TTITLE9=Move On 
TTITLE10=Goin' Down
EXTD=
EXTT0=
EXTT1=
EXTT2=
EXTT3=
EXTT4=
EXTT5=
EXTT6=
EXTT7=
EXTT8=
EXTT9=
EXTT10=
PLAYORDER=
